<?xml version="1.0" encoding="UTF-8"?> <svg xmlns="http://www.w3.org/2000/svg" id="Layer_1" data-name="Layer 1" viewBox="0 0 480 480"><defs><style>.cls-1{fill:#fff;}</style></defs><path class="cls-1" d="M464,16a32,32,0,0,0-32,32v74.09A217,217,0,0,0,49.58,182.2a32,32,0,0,0,60.91,19.69A152.91,152.91,0,0,1,380.4,160H336a32,32,0,0,0,0,64H464a32,32,0,0,0,32-32V48A32,32,0,0,0,464,16ZM441.8,289.6a32,32,0,0,0-40.3,20.59A152.93,152.93,0,0,1,131.6,352H176a32,32,0,0,0,0-64H48a32,32,0,0,0-32,32V464a32,32,0,0,0,64,0V389.91A216.21,216.21,0,0,0,461.5,329.8C467.9,313,458.6,294.1,441.8,289.6Z" transform="translate(-16 -16)"></path></svg> 