<svg id="Layer_1" data-name="Layer 1" xmlns="http://www.w3.org/2000/svg" viewBox="0 0 16 16"><defs><style>.cls-1{fill:#2ecc71;}.cls-2{fill:#3cbfc0;}</style></defs><path class="cls-1" d="M8,11.43a.75.75,0,0,1-.43-.13L1.22,7A.77.77,0,0,1,1,5.89a.78.78,0,0,1,1.06-.2L8,9.75,14,5.69A.76.76,0,0,1,14.81,7L8.43,11.3A.75.75,0,0,1,8,11.43Z"/><path class="cls-2" d="M1.65,15.2A.78.78,0,0,1,1,14.87a.77.77,0,0,1,.2-1.06l3.26-2.23a.76.76,0,0,1,1.06.2.75.75,0,0,1-.2,1.05L2.08,15.07A.75.75,0,0,1,1.65,15.2Z"/><path class="cls-2" d="M14.38,15.2a.75.75,0,0,1-.43-.13l-3.36-2.3a.76.76,0,0,1,.85-1.25l3.37,2.29a.76.76,0,0,1-.43,1.39Z"/><path class="cls-2" d="M13.33,15.61H2.67A2.28,2.28,0,0,1,.39,13.33v-7A1.51,1.51,0,0,1,1,5.06L7.56.53a.74.74,0,0,1,.87,0L15,5.06h0a1.51,1.51,0,0,1,.65,1.25v7A2.28,2.28,0,0,1,13.33,15.61ZM8,2.08,1.91,6.31v7a.76.76,0,0,0,.76.76H13.33a.76.76,0,0,0,.76-.76v-7Z"/></svg>