<svg id="Layer_1" data-name="Layer 1" xmlns="http://www.w3.org/2000/svg" viewBox="0 0 16 16"><defs><style>.cls-1{fill:#2ecc71;}.cls-2{fill:#3cbfc0;}</style></defs><path class="cls-1" d="M8,9.74A4.71,4.71,0,1,1,12.7,5,4.71,4.71,0,0,1,8,9.74Zm0-7.8A3.09,3.09,0,1,0,11.09,5,3.1,3.1,0,0,0,8,1.94Z"/><path class="cls-2" d="M14.86,15.67a.8.8,0,0,1-.8-.81A5.13,5.13,0,0,0,8.93,9.74H7.07a5.13,5.13,0,0,0-5.13,5.12.81.81,0,1,1-1.61,0A6.75,6.75,0,0,1,7.07,8.12H8.93a6.75,6.75,0,0,1,6.74,6.74A.81.81,0,0,1,14.86,15.67Z"/></svg>