<svg id="Layer_1" data-name="Layer 1" xmlns="http://www.w3.org/2000/svg" viewBox="0 0 16 16"><defs><style>.cls-1{fill:#3cbfc0;}.cls-2{fill:#2ecc71;}</style></defs><path class="cls-1" d="M14,15.58H2a2,2,0,0,1-2-2V3.89a2,2,0,0,1,2-2h8.83a.8.8,0,1,1,0,1.6H2a.4.4,0,0,0-.4.41v9.69A.4.4,0,0,0,2,14H14a.4.4,0,0,0,.4-.4V3.89a.4.4,0,0,0-.4-.41h-.67a.8.8,0,0,1,0-1.6H14a2,2,0,0,1,2,2v9.69A2,2,0,0,1,14,15.58Z"/><rect class="cls-2" x="10.29" y="0.42" width="1.6" height="4.62" rx="0.8"/><rect class="cls-2" x="4.13" y="0.42" width="1.6" height="4.62" rx="0.8"/><path class="cls-2" d="M4.93,8.67a.79.79,0,0,1-.8-.79v0a.81.81,0,0,1,1.61,0A.81.81,0,0,1,4.93,8.67Z"/><path class="cls-2" d="M4.93,11.8a.8.8,0,0,1-.8-.8h0a.81.81,0,1,1,1.61,0A.81.81,0,0,1,4.93,11.8Z"/><path class="cls-2" d="M8,8.68a.8.8,0,0,1-.55-.23l0,0a.8.8,0,0,1,0-1.13.79.79,0,0,1,1.13,0,.81.81,0,0,1,0,1.14A.83.83,0,0,1,8,8.68Z"/><path class="cls-2" d="M8,11.8a.79.79,0,0,1-.55-.22l0,0a.81.81,0,0,1,0-1.14.8.8,0,0,1,1.13,0A.8.8,0,0,1,8,11.8Z"/><path class="cls-2" d="M11.09,8.67a.79.79,0,0,1-.8-.79v0a.8.8,0,1,1,1.6,0A.81.81,0,0,1,11.09,8.67Z"/><path class="cls-2" d="M11.09,11.8a.8.8,0,0,1-.8-.8h0a.8.8,0,1,1,.8.81Z"/></svg>